<?xml version="1.0" encoding="UTF-8" standalone="no"?>
<!-- Created with Inkscape (http://www.inkscape.org/) -->

<svg
   width="350"
   height="95"
   viewBox="0 0 92.604162 25.135417"
   version="1.1"
   id="svg5"
   inkscape:version="1.1 (c68e22c387, 2021-05-23)"
   sodipodi:docname="quick-op.svg"
   xmlns:inkscape="http://www.inkscape.org/namespaces/inkscape"
   xmlns:sodipodi="http://sodipodi.sourceforge.net/DTD/sodipodi-0.dtd"
   xmlns="http://www.w3.org/2000/svg"
   xmlns:svg="http://www.w3.org/2000/svg">
  <sodipodi:namedview
     id="namedview7"
     pagecolor="#505050"
     bordercolor="#eeeeee"
     borderopacity="1"
     inkscape:pageshadow="0"
     inkscape:pageopacity="0"
     inkscape:pagecheckerboard="0"
     inkscape:document-units="mm"
     showgrid="false"
     inkscape:lockguides="true"
     units="px"
     width="600px"
     inkscape:zoom="2.9647587"
     inkscape:cx="176.23694"
     inkscape:cy="56.159714"
     inkscape:window-width="1920"
     inkscape:window-height="1017"
     inkscape:window-x="1912"
     inkscape:window-y="-8"
     inkscape:window-maximized="1"
     inkscape:current-layer="layer1" />
  <defs
     id="defs2" />
  <g
     inkscape:label="Layer 1"
     inkscape:groupmode="layer"
     id="layer1">
    <g
       aria-label="QuickOp"
       id="text3759"
       style="font-size:10.5833px;line-height:1.25;stroke-width:0.198437">
      <path
         d="m 18.027337,9.1152685 q 0,1.6382935 -0.342898,3.0733875 -0.330199,1.435095 -0.952497,2.62889 -0.609597,1.193795 -1.485894,2.133592 -0.863597,0.927096 -1.943092,1.549394 l 3.695685,4.94028 h -0.990596 q -0.253999,0 -0.444498,-0.0635 -0.177799,-0.0635 -0.304799,-0.241299 L 12.23616,19.03393 q -1.574794,0.634997 -3.3654869,0.634997 -1.5747939,0 -2.8447889,-0.558798 Q 4.7558892,18.538632 3.8541927,17.509936 2.9651962,16.48124 2.4825981,15.046145 2,13.611051 2,11.871158 2,9.508967 2.6984973,7.5658746 3.3969945,5.6100822 4.6161897,4.2257877 5.8480849,2.8287932 7.5117784,2.0667961 q 1.6763934,-0.761997 3.6194856,-0.761997 1.587494,0 2.857489,0.5714978 1.282695,0.5587978 2.171691,1.5874938 0.901697,1.0286959 1.384295,2.4764903 0.482598,1.4350943 0.482598,3.1749875 z m -1.308095,0.0254 q 0,-1.5620939 -0.406398,-2.806689 Q 15.919145,5.0766843 15.169848,4.2003878 14.420551,3.3113913 13.353755,2.8414931 12.29966,2.358895 10.991565,2.358895 q -1.6509938,0 -3.0606883,0.6603974 Q 6.5211823,3.6796898 5.4797864,4.911585 4.4510904,6.1434802 3.8668927,7.8960733 3.282695,9.6486664 3.282695,11.833058 q 0,1.562094 0.4063984,2.819389 0.4063984,1.244595 1.1556954,2.120891 0.7492971,0.876297 1.803393,1.358895 1.0540958,0.469898 2.3621907,0.469898 1.6763935,0 3.0860875,-0.647697 1.409695,-0.660398 2.438391,-1.892293 1.028696,-1.231895 1.600194,-2.971788 0.584197,-1.752593 0.584197,-3.9496846 z"
         style="font-style:italic;font-weight:300;font-size:25.3999px;font-family:Lato;-inkscape-font-specification:'Lato, Light Italic';stroke:#9e9e9e"
         id="path3563" />
      <path
         d="m 22.59928,6.8419774 -0.952497,8.0390686 q -0.0762,0.596898 -0.0762,1.104896 0,1.295394 0.482598,1.981192 0.495298,0.673097 1.549394,0.673097 0.698497,0 1.409694,-0.355598 0.711197,-0.355599 1.384295,-1.015996 0.673097,-0.673098 1.269995,-1.600194 0.596898,-0.939796 1.054096,-2.108192 l 0.812797,-6.7182736 h 1.193795 L 29.203254,19.478428 h -0.558798 q -0.241299,0 -0.355599,-0.127 -0.101599,-0.126999 -0.101599,-0.342898 l 0.380998,-3.594086 q -0.520698,1.003296 -1.155695,1.790693 -0.622298,0.787397 -1.320795,1.333495 -0.685797,0.533397 -1.422394,0.825496 -0.736597,0.279399 -1.473195,0.279399 -1.409694,0 -2.120891,-0.927096 -0.698498,-0.939796 -0.698498,-2.66699 0,-0.114299 0,-0.241299 0.0127,-0.139699 0.0381,-0.457198 0.0381,-0.330199 0.1016,-0.901696 0.0635,-0.571498 0.177799,-1.549394 0.1143,-0.990596 0.279399,-2.463791 0.177799,-1.4731939 0.431798,-3.5940856 z"
         style="font-style:italic;font-weight:300;font-size:25.3999px;font-family:Lato;-inkscape-font-specification:'Lato, Light Italic';stroke:#9e9e9e"
         id="path3565" />
      <path
         d="M 36.150119,6.8419774 34.613425,19.478428 H 33.43233 L 34.969024,6.8419774 Z m 0.927096,-4.3560829 q 0,0.2285991 -0.0889,0.4317983 -0.0889,0.1904993 -0.241299,0.3428987 -0.1524,0.1523994 -0.355599,0.241299 -0.190499,0.0889 -0.393698,0.0889 -0.2159,0 -0.406399,-0.0889 -0.190499,-0.0889 -0.342898,-0.241299 -0.1397,-0.1523994 -0.2286,-0.3428987 -0.0889,-0.2031992 -0.0889,-0.4317983 0,-0.2285991 0.0889,-0.4317983 0.0889,-0.2031992 0.2286,-0.3555986 0.152399,-0.1650994 0.342898,-0.253999 0.190499,-0.0889 0.406399,-0.0889 0.203199,0 0.393698,0.0889 0.203199,0.0889 0.355599,0.241299 0.152399,0.1523994 0.241299,0.3682986 0.0889,0.2031992 0.0889,0.4317983 z"
         style="font-style:italic;font-weight:300;font-size:25.3999px;font-family:Lato;-inkscape-font-specification:'Lato, Light Italic';stroke:#9e9e9e"
         id="path3567" />
      <path
         d="m 47.808646,17.167037 q -0.673097,0.749297 -1.282695,1.231895 -0.596898,0.482598 -1.181095,0.761997 -0.571498,0.279399 -1.168396,0.380999 -0.596897,0.101599 -1.269995,0.101599 -1.092196,0 -1.904992,-0.368298 -0.800097,-0.380999 -1.333495,-1.054096 -0.533398,-0.673098 -0.800097,-1.600194 -0.266699,-0.927096 -0.266699,-2.019292 0,-1.003296 0.203199,-1.981192 0.215899,-0.990596 0.609598,-1.879593 0.393698,-0.8889964 0.952496,-1.6382934 0.558798,-0.7492971 1.257295,-1.295395 0.698497,-0.5460978 1.511294,-0.8508966 0.825497,-0.3174988 1.752593,-0.3174988 0.622298,0 1.117596,0.1269995 0.507998,0.1142996 0.927096,0.3428987 0.419099,0.2158991 0.761997,0.5333979 0.342899,0.3174987 0.634998,0.7111972 l -0.355599,0.4190984 q -0.114299,0.1396994 -0.266699,0.1396994 -0.126999,0 -0.317498,-0.2031992 Q 47.211748,8.5056709 46.89425,8.2770718 46.589451,8.0357727 46.094153,7.8325735 45.598855,7.6293743 44.849558,7.6293743 q -1.066796,0 -1.993893,0.5714978 -0.914396,0.5714978 -1.600193,1.536694 -0.673098,0.9651959 -1.066796,2.2351909 -0.380999,1.257295 -0.380999,2.62889 0,0.876297 0.1905,1.625594 0.203199,0.749297 0.609597,1.295395 0.419099,0.546097 1.041396,0.850896 0.622298,0.304799 1.473194,0.304799 0.673098,0 1.206496,-0.139699 0.533398,-0.1524 0.939796,-0.368299 0.419098,-0.215899 0.723897,-0.469898 0.317499,-0.266699 0.558798,-0.482598 0.241299,-0.215899 0.406398,-0.355599 0.1778,-0.152399 0.317499,-0.152399 0.1397,0 0.266699,0.126999 l 0.266699,0.330199 z"
         style="font-style:italic;font-weight:300;font-size:25.3999px;font-family:Lato;-inkscape-font-specification:'Lato, Light Italic';stroke:#9e9e9e"
         id="path3569" />
      <path
         d="M 53.320376,1.0000003 51.936081,12.264856 h 0.469898 q 0.228599,0 0.368299,-0.0508 0.139699,-0.0635 0.330199,-0.241299 l 5.232379,-4.8132808 q 0.152399,-0.1396995 0.292099,-0.2285991 0.139699,-0.0889 0.355598,-0.0889 h 1.041396 l -5.778477,5.2958796 q -0.139699,0.126999 -0.266699,0.241299 -0.114299,0.101599 -0.253999,0.177799 0.177799,0.1016 0.292099,0.241299 0.114299,0.1397 0.228599,0.304799 l 4.622782,6.375375 h -1.015996 q -0.177799,0 -0.292099,-0.0635 -0.1143,-0.0635 -0.228599,-0.228599 l -4.190984,-5.689578 q -0.177799,-0.228599 -0.342898,-0.304798 -0.1651,-0.0889 -0.507998,-0.0889 h -0.457198 l -0.774697,6.375375 H 49.878689 L 52.13928,1.0000003 Z"
         style="font-style:italic;font-weight:300;font-size:25.3999px;font-family:Lato;-inkscape-font-specification:'Lato, Light Italic';stroke:#9e9e9e"
         id="path3571" />
      <path
         d="m 77.58994,9.1152685 q 0,2.3748905 -0.698497,4.3179835 -0.685797,1.943092 -1.917693,3.327387 -1.231895,1.384294 -2.908288,2.146291 -1.676394,0.761997 -3.632186,0.761997 -1.574794,0 -2.844789,-0.558798 -1.269995,-0.571497 -2.171691,-1.600193 -0.888997,-1.028696 -1.371595,-2.463791 -0.482598,-1.435094 -0.482598,-3.174987 0,-2.362191 0.698497,-4.3052834 0.698498,-1.9557924 1.917693,-3.3400869 1.231895,-1.3969945 2.895588,-2.1589916 1.676394,-0.761997 3.619486,-0.761997 1.587494,0 2.857489,0.5714978 1.282695,0.5587978 2.171691,1.5874938 0.901697,1.0286959 1.384295,2.4764903 0.482598,1.4350943 0.482598,3.1749875 z m -1.308095,0.0254 q 0,-1.5620939 -0.406398,-2.806689 Q 75.481748,5.0766843 74.732451,4.2003878 73.983154,3.3113913 72.916358,2.8414931 71.862263,2.358895 70.554168,2.358895 q -1.650994,0 -3.060688,0.6603974 -1.409695,0.6603974 -2.451091,1.8922926 -1.028696,1.2318952 -1.612893,2.9844883 -0.584198,1.7525931 -0.584198,3.9369847 0,1.562094 0.406398,2.819389 0.406399,1.244595 1.155696,2.120891 0.749297,0.876297 1.803393,1.358895 1.054096,0.469898 2.362191,0.469898 1.676393,0 3.086087,-0.647697 1.409695,-0.660398 2.438391,-1.892293 1.028696,-1.231895 1.600194,-2.971788 0.584197,-1.752593 0.584197,-3.9496846 z"
         style="font-style:italic;font-weight:300;font-size:25.3999px;font-family:Lato;-inkscape-font-specification:'Lato, Light Italic';stroke:#9e9e9e"
         id="path3573" />
      <path
         d="M 79.139288,23.94881 81.22208,6.8038776 h 0.546098 q 0.444498,0 0.444498,0.4571982 L 81.806278,11.23616 q 0.495298,-1.028696 1.104895,-1.8668925 0.622298,-0.8508967 1.308095,-1.4477943 0.698497,-0.6095976 1.447794,-0.9397963 0.749298,-0.3301987 1.523994,-0.3301987 0.825497,0 1.447795,0.3174987 0.622297,0.3174988 1.041396,0.9016965 0.419098,0.5714977 0.634997,1.3969945 0.215899,0.8254971 0.215899,1.8414931 0,0.977896 -0.203199,1.993892 -0.203199,1.003296 -0.584198,1.955792 -0.368298,0.939797 -0.914396,1.777993 -0.533398,0.838197 -1.219195,1.460495 -0.685797,0.622297 -1.511294,0.990596 -0.812797,0.355598 -1.727193,0.355598 -1.028696,0 -1.904993,-0.457198 -0.863597,-0.457198 -1.409694,-1.346195 l -0.749298,6.108676 z m 7.65807,-16.3194357 q -0.723897,0 -1.460494,0.4063984 -0.723897,0.3936985 -1.396995,1.1302956 -0.673097,0.7365971 -1.269995,1.7779927 -0.596897,1.028696 -1.054096,2.298691 l -0.444498,3.632186 q 0.558798,1.003296 1.371595,1.409695 0.812797,0.406398 1.689093,0.406398 0.800097,0 1.485894,-0.317499 0.698498,-0.330198 1.257295,-0.888996 0.571498,-0.558798 1.003296,-1.295395 0.444499,-0.749297 0.736597,-1.574794 0.304799,-0.825497 0.457199,-1.689093 0.165099,-0.876297 0.165099,-1.701794 0,-1.7017931 -0.647697,-2.6415894 -0.647698,-0.9524963 -1.892293,-0.9524963 z"
         style="font-style:italic;font-weight:300;font-size:25.3999px;font-family:Lato;-inkscape-font-specification:'Lato, Light Italic';stroke:#9e9e9e"
         id="path3575" />
    </g>
  </g>
</svg>
